<svg width="21" height="20" viewBox="0 0 21 20" fill="none" xmlns="http://www.w3.org/2000/svg">
<path d="M2.40783 4.81567C3.73764 4.81567 4.81567 3.73764 4.81567 2.40783C4.81567 1.07802 3.73764 0 2.40783 0C1.07802 0 0 1.07802 0 2.40783C0 3.73764 1.07802 4.81567 2.40783 4.81567Z" fill="#6B98F2"/>
<path d="M7.08924 6.64032V19.999H11.2369V13.3928C11.2369 11.6497 11.5649 9.96155 13.7262 9.96155C15.8578 9.96155 15.8842 11.9545 15.8842 13.5029V20.0001H20.0341V12.6742C20.0341 9.07567 19.2594 6.31018 15.0534 6.31018C13.034 6.31018 11.6804 7.41836 11.1269 8.46711H11.0708V6.64032H7.08924V6.64032ZM0.330139 6.64032H4.48442V19.999H0.330139V6.64032Z" fill="#6B98F2"/>
</svg>
